<svg width="30" height="30" viewBox="0 0 30 30" fill="none" xmlns="http://www.w3.org/2000/svg">
<path d="M1.25 27.5C1.25 28.175 1.8125 28.75 2.5 28.75H18.75C19.45 28.75 20 28.175 20 27.5V26.25H1.25V27.5ZM10.625 11.25C5.9375 11.25 1.25 13.75 1.25 18.75H20C20 13.75 15.3125 11.25 10.625 11.25ZM4.525 16.25C5.9125 14.3125 8.8625 13.75 10.625 13.75C12.3875 13.75 15.3375 14.3125 16.725 16.25H4.525ZM1.25 21.25H20V23.75H1.25V21.25ZM22.5 6.25V1.25H20V6.25H13.75L14.0375 8.75H25.9875L24.2375 26.25H22.5V28.75H24.65C25.7 28.75 26.5625 27.9375 26.6875 26.9125L28.75 6.25H22.5Z" fill="white"/>
</svg>
